<?xml version="1.0" encoding="UTF-8" standalone="no"?>
<svg
   xmlns:dc="http://purl.org/dc/elements/1.1/"
   xmlns:cc="http://creativecommons.org/ns#"
   xmlns:rdf="http://www.w3.org/1999/02/22-rdf-syntax-ns#"
   xmlns:svg="http://www.w3.org/2000/svg"
   xmlns="http://www.w3.org/2000/svg"
   xmlns:sodipodi="http://sodipodi.sourceforge.net/DTD/sodipodi-0.dtd"
   xmlns:inkscape="http://www.inkscape.org/namespaces/inkscape"
   height="24"
   viewBox="0 -960 960 960"
   width="24"
   version="1.1"
   id="svg4"
   sodipodi:docname="star2.svg"
   inkscape:version="1.0 (4035a4fb49, 2020-05-01)">
  <metadata
     id="metadata10">
    <rdf:RDF>
      <cc:Work
         rdf:about="">
        <dc:format>image/svg+xml</dc:format>
        <dc:type
           rdf:resource="http://purl.org/dc/dcmitype/StillImage" />
        <dc:title />
      </cc:Work>
    </rdf:RDF>
  </metadata>
  <defs
     id="defs8">
    <rect
       x="332.4878"
       y="-561.95122"
       width="295.02439"
       height="344.19512"
       id="rect845" />
  </defs>
  <sodipodi:namedview
     inkscape:document-rotation="0"
     pagecolor="#ffffff"
     bordercolor="#666666"
     borderopacity="1"
     objecttolerance="10"
     gridtolerance="10"
     guidetolerance="10"
     inkscape:pageopacity="0"
     inkscape:pageshadow="2"
     inkscape:window-width="1920"
     inkscape:window-height="991"
     id="namedview6"
     showgrid="false"
     inkscape:zoom="34.166667"
     inkscape:cx="12"
     inkscape:cy="14.836289"
     inkscape:window-x="-9"
     inkscape:window-y="-9"
     inkscape:window-maximized="1"
     inkscape:current-layer="svg4" />
  <path
     style="display:inline"
     fill="#fdff00"
     stroke="#605a00"
     stroke-width="40"
     d="m 233,-80 65,-281 -218,-189 288,-25 112,-265 112,265 288,25 -218,189 65,281 -247,-149 z"
     id="path2" />
  <path
     id="path833"
     style="font-style:normal;font-variant:normal;font-weight:bold;font-stretch:normal;font-size:480px;font-family:'Bell MT';-inkscape-font-specification:'Bell MT Bold';stroke-width:40"
     d="M 545.05331,-285.65851 H 383.56894 q -11.71875,0 -14.53125,-0.70312 -2.8125,-0.9375 -2.8125,-3.98438 0,-3.98437 7.26562,-8.67187 22.03125,-14.76563 61.17188,-50.15625 39.375,-35.625 55.78125,-68.4375 16.64062,-33.04688 16.64062,-67.03125 0,-19.45313 -7.73437,-30.46875 -7.5,-11.01563 -20.625,-11.01563 -15.70313,0 -30.23438,11.71875 -14.53125,11.71875 -22.96875,33.51563 -8.4375,21.5625 -8.4375,43.35937 0,12.1875 3.98438,18.28125 3.98437,6.09375 11.71875,6.09375 9.84375,0 18.75,-10.78125 8.67187,-10.54687 11.95312,-18.28125 3.28125,-7.26562 7.96875,-7.26562 6.32813,0 6.32813,5.85937 0,9.14063 -17.57813,32.34375 -17.57812,22.96875 -44.29687,22.96875 -21.32813,0 -33.98438,-13.82812 -12.42187,-14.0625 -12.42187,-31.64063 0,-40.54687 43.125,-75 43.35937,-34.6875 84.14062,-34.6875 32.57813,0 52.96875,19.92188 20.39063,19.6875 20.39063,48.98437 0,15 -6.79688,31.17188 -6.5625,16.17187 -16.875,28.35937 -10.07812,12.1875 -41.48437,35.625 -31.17188,23.4375 -60,42.89063 h 46.17187 q 35.625,0 45.9375,-3.98438 10.54688,-4.21875 20.85938,-18.51562 7.5,-10.78125 11.71875,-10.78125 6.32812,0 6.32812,6.5625 0,3.04687 -2.10937,7.5 -14.29688,30.23437 -28.82813,70.07812 z" />
</svg>
