<?xml version="1.0" encoding="UTF-8" standalone="no"?>
<svg
   xmlns:dc="http://purl.org/dc/elements/1.1/"
   xmlns:cc="http://creativecommons.org/ns#"
   xmlns:rdf="http://www.w3.org/1999/02/22-rdf-syntax-ns#"
   xmlns:svg="http://www.w3.org/2000/svg"
   xmlns="http://www.w3.org/2000/svg"
   xmlns:sodipodi="http://sodipodi.sourceforge.net/DTD/sodipodi-0.dtd"
   xmlns:inkscape="http://www.inkscape.org/namespaces/inkscape"
   height="24"
   viewBox="0 -960 960 960"
   width="24"
   version="1.1"
   id="svg4"
   sodipodi:docname="star4.svg"
   inkscape:version="1.0 (4035a4fb49, 2020-05-01)">
  <metadata
     id="metadata10">
    <rdf:RDF>
      <cc:Work
         rdf:about="">
        <dc:format>image/svg+xml</dc:format>
        <dc:type
           rdf:resource="http://purl.org/dc/dcmitype/StillImage" />
        <dc:title />
      </cc:Work>
    </rdf:RDF>
  </metadata>
  <defs
     id="defs8">
    <rect
       x="332.4878"
       y="-561.95122"
       width="295.02439"
       height="344.19512"
       id="rect845" />
  </defs>
  <sodipodi:namedview
     inkscape:document-rotation="0"
     pagecolor="#ffffff"
     bordercolor="#666666"
     borderopacity="1"
     objecttolerance="10"
     gridtolerance="10"
     guidetolerance="10"
     inkscape:pageopacity="0"
     inkscape:pageshadow="2"
     inkscape:window-width="1920"
     inkscape:window-height="991"
     id="namedview6"
     showgrid="false"
     inkscape:zoom="34.166667"
     inkscape:cx="12"
     inkscape:cy="14.836289"
     inkscape:window-x="-9"
     inkscape:window-y="-9"
     inkscape:window-maximized="1"
     inkscape:current-layer="svg4" />
  <path
     fill="#fdff00"
     stroke="#605a00"
     stroke-width="40"
     d="m233-80 65-281L80-550l288-25 112-265 112 265 288 25-218 189 65 281-247-149L233-80Z"
     id="path2" />
  <path
     id="path833"
     style="font-style:normal;font-variant:normal;font-weight:bold;font-stretch:normal;font-size:480px;font-family:'Bell MT';-inkscape-font-specification:'Bell MT Bold';stroke-width:40"
     d="m 469.35019,-378.23663 q -60.46875,0 -114.14063,3.51562 2.34375,-15.9375 4.6875,-20.39062 2.57813,-4.45313 25.07813,-30.46875 22.5,-26.25 43.82812,-48.28125 21.32813,-22.03125 42.65625,-42.42188 21.32813,-20.625 27.1875,-23.67187 6.09375,-3.28125 11.95313,-3.28125 7.03125,0 9.375,1.875 2.34375,1.875 2.34375,7.26562 l 0.23437,11.48438 v 128.20312 q 47.34375,0 50.39063,-37.26562 0.46875,-8.67188 6.5625,-8.67188 6.32812,0 6.32812,8.90625 0,2.57813 -0.46875,7.73438 -1.40625,18.51562 -1.40625,37.03125 0,11.01562 0.46875,20.39062 1.17188,16.17188 1.17188,19.92188 0,10.07812 -6.5625,10.07812 -5.15625,0 -7.96875,-12.42187 -3.51563,-15.46875 -11.25,-22.73438 -7.5,-7.26562 -27.42188,-7.26562 -3.28125,0 -9.84375,0.46875 v 40.3125 q 0,25.54687 5.15625,33.51562 5.15625,7.96875 23.67188,8.20313 8.67187,0.23437 8.67187,6.32812 0,6.79688 -8.67187,6.79688 -1.64063,0 -16.17188,-0.70313 -35.39062,-1.64062 -52.73437,-1.64062 -13.125,0 -34.21875,1.64062 -4.21875,0.46875 -6.09375,0.46875 -11.25,0 -14.0625,-1.17187 -2.8125,-1.17188 -2.8125,-5.15625 0,-6.32813 15.23437,-7.73438 11.71875,-1.17187 16.875,-5.15625 5.39063,-3.98437 7.26563,-13.82812 2.10937,-10.07813 4.6875,-61.875 z m -93.28125,-14.0625 93.28125,-1.875 q 0.46875,-6.32813 0.46875,-66.09375 0,-25.54688 -0.46875,-33.04688 l -37.26563,38.4375 q -35.625,36.32813 -56.01562,62.57813 z" />
</svg>
