<?xml version="1.0" encoding="UTF-8" standalone="no"?>
<svg
   xmlns:dc="http://purl.org/dc/elements/1.1/"
   xmlns:cc="http://creativecommons.org/ns#"
   xmlns:rdf="http://www.w3.org/1999/02/22-rdf-syntax-ns#"
   xmlns:svg="http://www.w3.org/2000/svg"
   xmlns="http://www.w3.org/2000/svg"
   xmlns:sodipodi="http://sodipodi.sourceforge.net/DTD/sodipodi-0.dtd"
   xmlns:inkscape="http://www.inkscape.org/namespaces/inkscape"
   height="24"
   viewBox="0 -960 960 960"
   width="24"
   version="1.1"
   id="svg4"
   sodipodi:docname="star3.svg"
   inkscape:version="1.0 (4035a4fb49, 2020-05-01)">
  <metadata
     id="metadata10">
    <rdf:RDF>
      <cc:Work
         rdf:about="">
        <dc:format>image/svg+xml</dc:format>
        <dc:type
           rdf:resource="http://purl.org/dc/dcmitype/StillImage" />
        <dc:title />
      </cc:Work>
    </rdf:RDF>
  </metadata>
  <defs
     id="defs8">
    <rect
       x="332.4878"
       y="-561.95122"
       width="295.02439"
       height="344.19512"
       id="rect845" />
  </defs>
  <sodipodi:namedview
     inkscape:document-rotation="0"
     pagecolor="#ffffff"
     bordercolor="#666666"
     borderopacity="1"
     objecttolerance="10"
     gridtolerance="10"
     guidetolerance="10"
     inkscape:pageopacity="0"
     inkscape:pageshadow="2"
     inkscape:window-width="1920"
     inkscape:window-height="991"
     id="namedview6"
     showgrid="false"
     inkscape:zoom="34.166667"
     inkscape:cx="12"
     inkscape:cy="14.836289"
     inkscape:window-x="-9"
     inkscape:window-y="-9"
     inkscape:window-maximized="1"
     inkscape:current-layer="svg4" />
  <path
     fill="#fdff00"
     stroke="#605a00"
     stroke-width="40"
     d="m233-80 65-281L80-550l288-25 112-265 112 265 288 25-218 189 65 281-247-149L233-80Z"
     id="path2" />
  <path
     id="path833"
     style="font-style:normal;font-variant:normal;font-weight:bold;font-stretch:normal;font-size:480px;font-family:'Bell MT';-inkscape-font-specification:'Bell MT Bold';stroke-width:40"
     d="m 501.69394,-430.03351 q 35.15625,0 51.32812,18.51563 16.17188,18.28125 16.17188,38.4375 0,23.90625 -16.875,45.70312 -16.875,21.79688 -43.125,34.21875 -26.25,12.1875 -57.89063,12.1875 -34.21875,0 -58.125,-14.76562 -23.90625,-15 -23.90625,-37.26563 0,-14.29687 8.67188,-22.73437 8.90625,-8.4375 21.09375,-8.4375 10.54687,0 18.98437,7.73437 8.67188,7.73438 8.67188,18.98438 0,6.09375 -3.98438,14.76562 -2.8125,6.5625 -2.8125,9.60938 0,7.5 8.20313,12.42187 8.4375,4.6875 18.51562,4.6875 26.01563,0 44.76563,-41.71875 18.98437,-41.95312 18.98437,-59.76562 0,-9.60938 -5.625,-15.46875 -5.625,-5.85938 -12.42187,-5.85938 -8.67188,0 -30,16.40625 -15,11.48438 -18.28125,11.48438 -6.79688,0 -6.79688,-6.09375 0,-4.21875 5.39063,-8.4375 41.01562,-32.57813 52.5,-51.5625 11.71875,-19.21875 11.71875,-36.09375 0,-15.70313 -7.73438,-24.84375 -7.73437,-9.14063 -19.6875,-9.14063 -18.28125,0 -33.04687,16.17188 -14.53125,16.17187 -14.53125,37.5 0,7.5 3.75,12.42187 3.75,4.92188 8.67187,4.92188 10.3125,0 20.85938,-18.28125 2.34375,-4.21875 6.5625,-4.21875 6.32812,0 6.32812,6.5625 0,6.79687 -15.46875,24.84375 -15.23437,17.8125 -36.79687,17.8125 -14.76563,0 -25.07813,-10.3125 -10.3125,-10.54688 -10.3125,-26.25 0,-32.57813 33.04688,-55.07813 33.04687,-22.73437 73.125,-22.73437 33.28125,0 49.45312,14.29687 16.40625,14.0625 16.40625,32.10938 0,10.78125 -7.26562,22.26562 -7.26563,11.48438 -15.23438,18.04688 -7.96875,6.5625 -38.20312,26.95312 z" />
</svg>
