<?xml version="1.0" encoding="UTF-8" standalone="no"?>
<svg
   xmlns:dc="http://purl.org/dc/elements/1.1/"
   xmlns:cc="http://creativecommons.org/ns#"
   xmlns:rdf="http://www.w3.org/1999/02/22-rdf-syntax-ns#"
   xmlns:svg="http://www.w3.org/2000/svg"
   xmlns="http://www.w3.org/2000/svg"
   xmlns:sodipodi="http://sodipodi.sourceforge.net/DTD/sodipodi-0.dtd"
   xmlns:inkscape="http://www.inkscape.org/namespaces/inkscape"
   height="24"
   viewBox="0 -960 960 960"
   width="24"
   version="1.1"
   id="svg4"
   sodipodi:docname="star1.svg"
   inkscape:version="1.0 (4035a4fb49, 2020-05-01)">
  <metadata
     id="metadata10">
    <rdf:RDF>
      <cc:Work
         rdf:about="">
        <dc:format>image/svg+xml</dc:format>
        <dc:type
           rdf:resource="http://purl.org/dc/dcmitype/StillImage" />
      </cc:Work>
    </rdf:RDF>
  </metadata>
  <defs
     id="defs8">
    <rect
       x="332.4878"
       y="-561.95122"
       width="295.02439"
       height="344.19512"
       id="rect845" />
  </defs>
  <sodipodi:namedview
     inkscape:document-rotation="0"
     pagecolor="#ffffff"
     bordercolor="#666666"
     borderopacity="1"
     objecttolerance="10"
     gridtolerance="10"
     guidetolerance="10"
     inkscape:pageopacity="0"
     inkscape:pageshadow="2"
     inkscape:window-width="1920"
     inkscape:window-height="991"
     id="namedview6"
     showgrid="false"
     inkscape:zoom="34.166667"
     inkscape:cx="12"
     inkscape:cy="14.836289"
     inkscape:window-x="-9"
     inkscape:window-y="-9"
     inkscape:window-maximized="1"
     inkscape:current-layer="svg4" />
  <path
     fill="#fdff00"
     stroke="#605a00"
     stroke-width="40"
     d="m233-80 65-281L80-550l288-25 112-265 112 265 288 25-218 189 65 281-247-149L233-80Z"
     id="path2" />
  <path
     id="path833"
     style="font-style:normal;font-variant:normal;font-weight:bold;font-stretch:normal;font-size:480px;font-family:'Bell MT';-inkscape-font-specification:'Bell MT Bold';stroke-width:40"
     d="m 508.02206,-531.04913 v 176.95312 q 0,36.79688 5.625,47.10938 5.85938,10.07812 21.09375,10.54687 11.01563,0.23438 13.82813,1.875 2.8125,1.40625 2.8125,5.39063 0,6.32812 -7.73438,6.32812 -1.64062,0 -3.98437,-0.23437 -36.5625,-2.57813 -53.67188,-2.57813 -18.04687,0 -52.26562,1.875 -12.1875,0.46875 -16.40625,0.46875 -9.14063,0 -9.14063,-6.32812 0,-3.98438 2.8125,-5.15625 3.04688,-1.40625 14.53125,-2.34375 14.29688,-1.17188 20.39063,-6.5625 6.32812,-5.625 7.73437,-11.95313 1.40625,-6.32812 2.34375,-29.76562 v -105.23438 q 0,-26.95312 -3.04687,-37.26562 -3.04688,-10.54688 -9.84375,-14.76563 -6.79688,-4.45312 -21.79688,-6.09375 -11.95312,-1.40625 -14.53125,-2.57812 -2.57812,-1.17188 -2.57812,-4.92188 0,-4.21875 2.8125,-5.39062 3.04687,-1.17188 12.65625,-1.875 42.89062,-3.28125 75.70312,-19.6875 3.98438,-1.875 6.5625,-1.875 6.09375,0 6.09375,14.0625 z" />
</svg>
